# Blender v2.76 (sub 0) OBJ File: ''
# www.blender.org
mtllib cube.mtl
o Cube
v 1.000000 -1.000000 -1.000000
v 1.000000 -1.000000 1.000000
v -1.000000 -1.000000 1.000000
v -1.000000 -1.000000 -1.000000
v 1.000000 1.000000 -0.999999
v 0.999999 1.000000 1.000001
v -1.000000 1.000000 1.000000
v -1.000000 1.000000 -1.000000
vn 0.000000 -1.000000 0.000000
vn 1.000000 0.000000 0.000000
vn -1.000000 -0.000000 -0.000000
vn 0.000000 0.000000 -1.000000
vn 0.000000 -0.000000 1.000000
vn 0.000000 1.000000 0.000000
usemtl Red
s off
f 2//1 3//1 4//1
f 5//2 6//2 2//2
f 3//3 7//3 8//3
f 1//4 4//4 8//4
f 1//1 2//1 4//1
f 2//5 6//5 3//5
f 4//3 3//3 8//3
f 5//4 1//4 8//4
usemtl Green
f 8//6 7//6 6//6
f 6//5 7//5 3//5
f 5//6 8//6 6//6
f 1//2 5//2 2//2
